<?xml version="1.0" encoding="UTF-8" standalone="no"?>
<!-- Created with Inkscape (http://www.inkscape.org/) -->

<svg
   width="221.82668mm"
   height="171.87332mm"
   viewBox="0 0 838.40006 649.59996"
   version="1.1"
   id="svg1"
   xml:space="preserve"
   inkscape:version="1.1.2 (0a00cf5339, 2022-02-04)"
   sodipodi:docname="control_board.svg"
   inkscape:export-filename="/home/sassa/Projets/Water_heater_881163_control_board/control_board.png"
   inkscape:export-xdpi="96"
   inkscape:export-ydpi="96"
   xmlns:inkscape="http://www.inkscape.org/namespaces/inkscape"
   xmlns:sodipodi="http://sodipodi.sourceforge.net/DTD/sodipodi-0.dtd"
   xmlns:xlink="http://www.w3.org/1999/xlink"
   xmlns="http://www.w3.org/2000/svg"
   xmlns:svg="http://www.w3.org/2000/svg"><sodipodi:namedview
     id="namedview1"
     pagecolor="#ffffff"
     bordercolor="#000000"
     borderopacity="0.25"
     inkscape:showpageshadow="2"
     inkscape:pageopacity="0.0"
     inkscape:pagecheckerboard="0"
     inkscape:deskcolor="#d1d1d1"
     inkscape:document-units="mm"
     inkscape:zoom="1.0469406"
     inkscape:cx="254.55121"
     inkscape:cy="308.51798"
     inkscape:window-width="1920"
     inkscape:window-height="1024"
     inkscape:window-x="0"
     inkscape:window-y="0"
     inkscape:window-maximized="1"
     inkscape:current-layer="layer1"
     inkscape:pageshadow="2"
     showgrid="false" /><defs
     id="defs1" /><g
     inkscape:label="Calque 1"
     inkscape:groupmode="layer"
     id="layer1"
     transform="translate(22.738478,-236.45987)"><image
       width="838.40002"
       height="649.59998"
       preserveAspectRatio="none"
       xlink:href="control_board_front.JPG"
       id="image1"
       x="-22.738478"
       y="236.45987"
       style="opacity:1"
       sodipodi:insensitive="true" /><image
       width="828.51874"
       height="638.53998"
       preserveAspectRatio="none"
       xlink:href="control_board_back.JPG"
       id="image1-1"
       x="-7.3514233"
       y="242.42944"
       style="opacity:0" /><path
       style="opacity:1;fill:none;stroke:#ff0000;stroke-width:5.66929;stroke-dasharray:none"
       d="m 99.522512,384.51029 h 23.879098 l 35.60496,20.55654 v 36.04013 l -19.64834,47.61591 26.00301,9.45564"
       id="path1" /><path
       style="opacity:1;fill:none;stroke:#ff0000;stroke-width:5.66929;stroke-dasharray:none"
       d="m 159.28261,404.9729 -25.49646,25.49646 H 93.093127 l -17.476054,17.47605"
       id="path2" /><path
       style="opacity:1;fill:none;stroke:#000000;stroke-width:5.66929;stroke-dasharray:none"
       d="m 101.19796,362.08482 h 59.09776 l 46.07601,-26.602 69.0199,-39.84866 h 373.89582 v 50.57869 l 7.76432,28.97684 v 84.15315 l -19.51346,11.2661 -26.40615,-7.07551"
       id="path3" /><path
       style="opacity:1;fill:none;stroke:#000000;stroke-width:8.93858"
       d="m 636.79249,470.48699 23.103,40.01556"
       id="path4" /><path
       style="opacity:1;fill:none;stroke:#000000;stroke-width:8.93858"
       d="m 649.28745,324.93765 h 61.12396 l 19.92439,19.92439"
       id="path5" /><path
       style="opacity:1;fill:none;stroke:#000000;stroke-width:8.93858"
       d="m 658.74309,509.32266 h 53.35683"
       id="path6" /><path
       style="opacity:1;fill:none;stroke:#000000;stroke-width:5.66929;stroke-dasharray:none"
       d="m 552.36712,295.89533 v 36.13406"
       id="path7" /><path
       style="opacity:1;fill:none;stroke:#000000;stroke-width:5.66929;stroke-dasharray:none"
       d="m 353.79866,295.21993 v 54.03223 l -53.58087,92.8048 v 24.03991 l -31.12537,31.12537 -12.15039,-21.04509 h -29.10601 l -13.5506,23.47034 v 40.74371 h 20.98003 l 24.70102,42.78341 78.29793,28.8093 35.0231,60.66178"
       id="path8" /><path
       style="opacity:1;fill:none;stroke:#000000;stroke-width:5.66929;stroke-dasharray:none"
       d="m 101.87336,363.09792 -0.3377,-24.3145"
       id="path9" /><path
       style="opacity:1;fill:none;stroke:#000000;stroke-width:5.66929;stroke-dasharray:none"
       d="m 210.61324,539.37809 h -84.42537 l -30.224282,30.22428 v 11.313 l 28.451352,28.45135 h 85.5229 v 76.23611 l -16.88507,16.88507 h -53.35684"
       id="path10" /><path
       style="opacity:1;fill:none;stroke:#000000;stroke-width:5.66929;stroke-dasharray:none"
       d="m 156.9187,702.1502 v 44.23889 l -14.69001,14.69001 v 26.84728"
       id="path11" /><path
       style="opacity:1;fill:none;stroke:#000000;stroke-width:5.66929;stroke-dasharray:none"
       d="m 157.5941,733.89414 h 17.89818"
       id="path12" /><path
       style="opacity:1;fill:none;stroke:#000000;stroke-width:5.66929;stroke-dasharray:none"
       d="M 100.18486,408.68762 H 70.467128 L 54.93286,424.22189 v 389.0321 l 16.209669,16.20967 H 290.31079 649.96286 v -80.03525 l 9.11794,-9.11794 h 23.3014 l 14.18346,-14.18346 h 17.89818"
       id="path13" /><path
       style="opacity:1;fill:none;stroke:#ff0000;stroke-width:8.93858"
       d="M 289.97308,799.74592 H 230.19992 V 788.93948"
       id="path14" /><path
       style="opacity:1;fill:none;stroke:#ff0000;stroke-width:8.93858"
       d="m 231.21303,800.42132 v 11.81956"
       id="path15" /><path
       style="opacity:1;fill:none;stroke:#ff0000;stroke-width:8.93858"
       d="M 81.948982,813.59168 H 141.04673"
       id="path16" /><path
       style="opacity:1;fill:none;stroke:#ff0000;stroke-width:5.66929;stroke-dasharray:none"
       d="M 139.02052,731.53022 83.145112,763.78991 V 692.01916"
       id="path17" /><path
       style="opacity:1;fill:none;stroke:#ff0000;stroke-width:5.66929;stroke-dasharray:none"
       d="m 178.19389,678.8488 h -71.25501 v 47.61591"
       id="path18" /><path
       style="opacity:1;fill:none;stroke:#ff0000;stroke-width:5.66929;stroke-dasharray:none"
       d="M 107.95199,679.8619 65.063904,636.97381 v -81.72375 l 13.001507,-13.00151"
       id="path19" /><path
       style="opacity:1;fill:none;stroke:#ff0000;stroke-width:5.66929;stroke-dasharray:none"
       d="m 138.68282,656.5605 h 60.11086 V 618.40024 H 118.08304 L 86.507948,586.82515 v -24.14566 l 37.062732,-37.06274 h 52.25931 l 19.58925,-33.92957 45.68288,-79.12508 52.25905,-30.17178 26.21852,-45.41181"
       id="path20" /><path
       style="opacity:1;fill:none;stroke:#ff0000;stroke-width:5.66929;stroke-dasharray:none"
       d="M 178.8693,634.2722 H 108.28969 L 77.39001,603.37252 V 558.62708 L 101.62009,534.397 v -27.77595 l 13.17588,-22.82129"
       id="path21" /><path
       style="opacity:1;fill:none;stroke:#ff6600;stroke-width:5.66929;stroke-dasharray:none"
       d="m 113.35521,573.14824 25.40392,6.80695 9.2751,-9.2751 h 32.52358 l 9.00121,9.00121 v -27.47055 h 37.60159 l 27.69152,39.17337 14.52117,41.19958 h -21.9506"
       id="path22" /><path
       style="opacity:1;fill:none;stroke:#ff6600;stroke-width:5.66929;stroke-dasharray:none"
       d="m 269.03559,632.24599 9.45564,0.3377 22.11945,22.11945 h 34.9521 l 36.80947,47.10936 23.58087,40.84326 176.0007,0.35632"
       id="path23" /><path
       style="opacity:1;fill:none;stroke:#ff6600;stroke-width:5.66929;stroke-dasharray:none"
       d="m 545.9508,741.99897 v -68.2157 l 10.46874,-10.46874 h 12.49496 l 9.62449,9.62449 v 23.47026 l 12.07283,12.07283 h 26.93169 v -24.90549"
       id="path24" /><path
       style="opacity:1;fill:none;stroke:#ff6600;stroke-width:5.66929;stroke-dasharray:none"
       d="M 372.37224,701.13709 398.37525,680.1996 V 664.32764 L 308.54667,541.4043 v -23.9768 l 18.74243,-18.74243 v -43.39465 l 28.45135,-28.45135 h 41.95941 l 5.88128,10.18668 36.21833,-36.21833 h 20.37516 l 31.3497,-31.3497 h 75.36396 l 6.64559,11.5105 23.40985,-32.39146"
       id="path25" /><path
       style="opacity:1;fill:none;stroke:#ff6600;stroke-width:5.66929;stroke-dasharray:none"
       d="m 573.64232,382.0092 -30.73084,36.13406 -93.2056,27.01612"
       id="path26" /><path
       style="opacity:1;fill:none;stroke:#ff0000;stroke-width:5.66929;stroke-dasharray:none"
       d="m 542.23608,388.76323 -91.5171,31.40624 -21.61289,15.19657 -7.76713,26.34071 h -18.57358"
       id="path27" /><path
       style="opacity:1;fill:none;stroke:#ff0000;stroke-width:5.66929;stroke-dasharray:none"
       d="m 541.22297,443.13317 -61.46166,34.44555"
       id="path28" /><path
       style="opacity:1;fill:none;stroke:#ff0000;stroke-width:5.66929;stroke-dasharray:none"
       d="m 403.77848,482.98194 -47.95361,42.88809"
       id="path29" /><path
       style="opacity:1;fill:none;stroke:#ff0000;stroke-width:5.66929;stroke-dasharray:none"
       d="m 355.14946,492.43758 7.42944,-40.18647"
       id="path30" /><path
       style="opacity:1;fill:none;stroke:#ff0000;stroke-width:5.66929;stroke-dasharray:none"
       d="m 361.22809,565.0434 15.87197,33.09474 h 20.9375"
       id="path31" /><path
       style="opacity:1;fill:none;stroke:#ff0000;stroke-width:5.66929;stroke-dasharray:none"
       d="m 248.4358,657.2359 h 27.01612 l 14.29982,53.36766 -59.55181,22.61518"
       id="path32" /><path
       style="opacity:1;fill:none;stroke:#ff0000;stroke-width:5.66929;stroke-dasharray:none"
       d="m 164.34813,591.72182 5.40323,5.40322 h 54.03224"
       id="path33" /><path
       style="opacity:1;fill:none;stroke:#ff0000;stroke-width:5.66929;stroke-dasharray:none"
       d="m 238.64246,597.12504 h -16.54737 v 73.28122 l 9.45564,9.45564 h 15.19657"
       id="path34" /><path
       style="opacity:1;fill:none;stroke:#ff0000;stroke-width:5.66929;stroke-dasharray:none"
       d="m 247.7604,703.8387 h -18.23588 l -22.626,22.626 v 15.19657 l 21.9506,21.9506 47.95361,-15.87197 h 22.2883"
       id="path35" /><path
       style="opacity:1;fill:none;stroke:#ff0000;stroke-width:5.66929;stroke-dasharray:none"
       d="m 288.62228,777.11992 h 13.50805 l 31.74395,31.74395 H 592.2159 l 9.79334,9.79334 h 26.34072 l 10.13105,-10.13105 v -71.25501 l 23.6391,-23.6391 h 7.76713 L 695.046,688.47329 h 20.09324"
       id="path36" /><path
       style="opacity:1;fill:none;stroke:#ff0000;stroke-width:5.66929;stroke-dasharray:none"
       d="m 337.25129,695.05847 37.65522,65.22075"
       id="path37" /><path
       style="opacity:1;fill:none;stroke:#ff0000;stroke-width:5.66929;stroke-dasharray:none"
       d="m 338.60209,788.60177 h 129.00196 29.04234"
       id="path38" /><path
       style="opacity:1;fill:none;stroke:#ff0000;stroke-width:5.66929;stroke-dasharray:none"
       d="m 518.93468,787.92637 h 52.68143"
       id="path39" /><path
       style="opacity:1;fill:none;stroke:#ff0000;stroke-width:5.66929;stroke-dasharray:none"
       d="m 560.47196,682.22581 9.57643,35.73974 25.94863,14.98145 v 43.15982 l 24.11246,24.11246"
       id="path40" /><path
       style="opacity:1;fill:none;stroke:#ff0000;stroke-width:5.66929;stroke-dasharray:none"
       d="M 595.93061,768.00198 H 569.5899"
       id="path41" /><path
       style="opacity:1;fill:none;stroke:#ff0000;stroke-width:5.66929;stroke-dasharray:none"
       d="m 237.96705,502.23093 26.67842,26.67841 10.31971,38.51366"
       id="path42" /><path
       style="opacity:1;fill:none;stroke:#ff0000;stroke-width:5.66929;stroke-dasharray:none"
       d="m 264.64547,530.26015 48.12246,-48.12246 v -29.88658 l 89.99745,-134.40518 h 38.83567"
       id="path43" /><path
       style="opacity:1;fill:none;stroke:#000000;stroke-width:5.66929;stroke-dasharray:none"
       d="m 477.3974,295.55763 v 26.34071"
       id="path44" /><path
       style="opacity:1;fill:none;stroke:#ff0000;stroke-width:5.66929;stroke-dasharray:none"
       d="m 402.76537,406.66141 26.16093,-15.10402 h 21.79269"
       id="path45" /><path
       style="opacity:1;fill:none;stroke:#ffff00;stroke-width:5.66929;stroke-dasharray:none"
       d="m 533.64455,327.67803 v 31.04283 h 40.11689 v -29.61008 l 10.26802,-10.26802 h 28.41613 l 12.05895,12.05895 v 28.77432 l -73.18945,108.41111 16.37142,28.35612 64.33994,42.32602 v 70.68213 l -6.9929,12.11206 h -13.54313 l -20.62228,-20.62228 v -24.44293 l -15.2395,-15.2395 h -26.70146 l -12.63436,12.63436 v 79.49584 l -21.38258,21.38258 h -13.26368 l -11.97969,20.74943 h 30.60539"
       id="path46" /><path
       style="opacity:1;fill:none;stroke:#ff0000;stroke-width:5.66929;stroke-dasharray:none"
       d="m 560.86672,593.69121 13.28092,49.56504 h 20.62741 v 44.04103"
       id="path47" /><path
       style="opacity:1;fill:none;stroke:#ff0000;stroke-width:5.66929;stroke-dasharray:none"
       d="m 711.78263,653.86654 h -71.6373 l -63.04081,-36.29623 v -35.34107 l -10.98439,-10.98439 h -13.84988 l -6.9929,12.11206 v 74.33029 l -11.0698,11.0698 v 51.49344 H 451.02287 V 617.57031 l -7.64131,-9.07406 v -28.65492 l 13.1335,-13.1335 h 20.77482"
       id="path48" /><path
       style="opacity:1;fill:none;stroke:#ff0000;stroke-width:5.66929;stroke-dasharray:none"
       d="m 474.42438,566.94661 38.5355,-66.74544"
       id="path49" /><path
       style="opacity:1;fill:none;stroke:#ff0000;stroke-width:5.66929;stroke-dasharray:none"
       d="m 511.67578,591.3033 h -44.89271 l 38.20656,38.20656"
       id="path50" /><path
       style="opacity:1;fill:none;stroke:#ff0000;stroke-width:5.66929;stroke-dasharray:none"
       d="m 468.21581,698.75924 v -32.47557 l 36.73494,-21.20893 h 12.45602 l 11.12551,-11.12551 v -90.88171 h 37.11027"
       id="path51" /><path
       style="opacity:1;fill:none;stroke:#ff0000;stroke-width:5.66929;stroke-dasharray:none"
       d="m 566.12012,522.53149 h 15.28263 l 31.04283,31.04283 v 47.28062"
       id="path52" /><path
       style="opacity:1;fill:none;stroke:#ff6600;stroke-width:5.66929;stroke-dasharray:none"
       d="m 626.77304,405.04632 v 35.81865 h -25.78942 l -26.5058,26.5058 69.96576,58.50379"
       id="path53" /><path
       style="opacity:1;fill:none;stroke:#ff6600;stroke-width:5.66929;stroke-dasharray:none"
       d="m 644.92115,525.39698 v 94.08365 l 11.93956,11.93956 h 15.76021 l 41.25022,-11.05296"
       id="path54" /><path
       style="opacity:1;fill:none;stroke:#ff6600;stroke-width:5.66929;stroke-dasharray:none"
       d="m 661.107,601.17746 v -26.00302 l 30.39313,-30.39313 h 27.01613 l 13.57267,-7.83618 v -44.84524 l -20.97665,-12.11087 v -41.58367 l 8.57411,-4.95026"
       id="path55" /><path
       style="opacity:1;fill:none;stroke:#ff6600;stroke-width:5.66929;stroke-dasharray:none"
       d="m 716.15234,405.98601 21.61289,21.61289 v 35.12096 l -8.44253,8.44253 12.83266,12.83266 v 86.11388 l -28.17664,16.26779"
       id="path56" /><path
       style="opacity:1;fill:none;stroke:#ff6600;stroke-width:5.66929;stroke-dasharray:none"
       d="M 715.47693,620.08874 755.9025,596.74903 V 403.9598 l -57.04964,-32.93763 -22.3285,-22.3285"
       id="path57" /></g></svg>
